<?xml version="1.0" encoding="utf-8"?>
<!-- Generator: Adobe Illustrator 27.2.0, SVG Export Plug-In . SVG Version: 6.00 Build 0)  -->
<svg version="1.1" id="Layer_1" xmlns="http://www.w3.org/2000/svg" xmlns:xlink="http://www.w3.org/1999/xlink" x="0px" y="0px"
	 viewBox="0 0 326 326" style="enable-background:new 0 0 326 326;" xml:space="preserve">
<style type="text/css">
	.st0{fill:#AECC0E;}
</style>
<g id="yazsMx.tif">
	<g>
		<path class="st0" d="M167.6,226.7c-2.4,1.8-4.7,3.7-7.1,5.4c-5.6,4-11.7,7.2-18.2,9.7c-0.8,0.3-1.1,0.7-1.1,1.6
			c0.1,5-0.1,10.1,0.1,15.1c0.1,5.1-4.1,10.3-8.6,11.3c-2.8,0.6-5.6,1-8.4,1.2c-4.2,0.3-8.3,0.6-12.5,0.6
			c-5.8,0.1-11.4-0.8-17.1-1.6c-5.3-0.8-8.2-4.1-9.5-9c-0.2-1-0.2-2-0.3-3c0-4.9,0-9.9,0-14.8c0-0.7-0.2-1.1-0.9-1.3
			c-9.3-3.4-17.8-8.3-25.3-14.7c-0.5-0.4-0.8-0.4-1.3-0.1c-4.6,2.7-9.1,5.5-13.8,8c-5.5,3-10.1,2.3-14.1-2.6
			c-6.5-7.7-12.5-15.8-17.2-24.8c-1.3-2.6-2.5-5.2-3.5-7.9c-2.1-6-0.1-10.8,5.6-13.8c4.9-2.5,9.7-5,14.6-7.5
			c0.6-0.3,0.9-0.6,0.7-1.4c-1.4-7.6-1.7-15.3-0.8-23.1c0.2-1.9,0.5-3.9,0.8-5.8c0.1-0.8-0.1-1.1-0.7-1.4c-4.9-2.5-9.8-5-14.7-7.6
			c-2-1-3.8-2.3-5.1-4.3c-1.9-2.9-1.8-5.9-0.7-9c2-5.7,4.9-10.9,8.1-15.9c3.9-6.1,8.3-11.8,12.9-17.4c1.3-1.6,2.8-2.9,4.8-3.6
			c3-1.1,5.9-0.5,8.5,0.9c4.8,2.5,9.5,5.2,14.2,7.8c0.7,0.4,1.1,0.3,1.8-0.2c7.5-6.2,15.9-11,25.1-14.1c0.7-0.2,0.9-0.6,0.9-1.2
			c0-5.1,0-10.2,0-15.3c0-4.2,1.5-7.5,5-9.9c1.7-1.2,3.8-1.5,5.8-1.8c7.2-1.2,14.4-1.9,21.6-1.4c5.2,0.4,10.3,1,15.4,1.8
			c4.5,0.7,8.4,5.4,8.5,10c0.1,5.4,0.1,10.9,0.1,16.3c0,0.8,0.2,1.2,1,1.6c9,3.4,17.2,8.1,24.6,14.2c0.5,0.4,0.8,0.4,1.4,0.1
			c5.1-2.8,10.2-5.5,15.3-8.2c4.4-2.4,8.7-1.8,12.2,2.2c7.8,8.9,14.9,18.4,19.8,29.3c1.2,2.6,2.3,5.2,2.5,8.1c0.2,3.2-0.9,5.9-3.4,8
			c-1,0.9-2.2,1.6-3.4,2.3c-4.9,2.5-9.8,4.9-14.7,7.3c-0.7,0.4-0.9,0.7-0.8,1.5c1.8,9.5,1.7,19.1,0,28.6c-0.1,0.7,0,1.1,0.7,1.5
			c5.1,2.5,10.1,5,15.1,7.6c2.6,1.4,4.8,3.2,5.8,6.1c0.9,2.4,0.7,4.8-0.1,7.2c-1.8,5.6-4.6,10.7-7.8,15.6
			c-3.9,6.1-8.3,11.8-12.9,17.4c-1.4,1.6-2.9,3-5,3.8c-2.9,1.2-5.8,0.8-8.5-0.6c-5-2.7-9.9-5.5-14.8-8.3
			C168.2,227,167.9,226.8,167.6,226.7z M112.5,197.9c1.1-0.1,2.3-0.1,3.4-0.2c8.5-0.8,16-4.2,22.7-9.3c0.2-0.2,0.4-0.4,0.6-0.6
			c4.9-6.5,8.2-13.7,8.9-21.9c0.5-5.7-0.1-11.3-2.5-16.6c-2.3-5-5.7-9.2-9.7-12.9c-7.4-6.9-16.1-9.9-26.2-8.8
			c-8.3,1-15.6,4.3-22.2,9.3c-0.3,0.2-0.5,0.5-0.7,0.8c-4.9,6.5-8.1,13.6-8.8,21.8c-0.5,5.9,0.1,11.7,2.7,17.1
			c3.1,6.4,7.8,11.5,13.5,15.7C99.7,196.2,105.8,198,112.5,197.9z"/>
		<path class="st0" d="M309.1,250c-1.2,0-2.4,0-3.6,0c-0.6,0-0.9,0.1-1.1,0.7c-1.8,4.3-4.1,8.3-7.1,11.9c-0.4,0.4-0.4,0.8-0.1,1.2
			c1.1,1.9,2.2,3.9,3.3,5.8c1.9,3.3,1.4,5.9-1.4,8.3c-4.5,3.9-9.6,6.8-15.1,9c-3,1.2-5.6,0.3-7.3-2.5c-1.3-2.1-2.5-4.3-3.7-6.5
			c-0.3-0.5-0.5-0.6-1.1-0.5c-4.7,0.8-9.4,0.8-14.1,0c-0.5-0.1-0.8,0-1.1,0.5c-1.1,2-2.3,4.1-3.5,6.1c-2,3.4-4.5,4.2-8.1,2.7
			c-5.2-2.1-10.1-4.9-14.4-8.6c-0.6-0.5-1.1-1.1-1.6-1.7c-1.4-1.9-1.5-3.9-0.5-5.9c1.1-2.2,2.4-4.3,3.6-6.4c0.4-0.6,0.4-1-0.1-1.6
			c-2.9-3.5-5.1-7.4-6.9-11.6c-0.3-0.6-0.6-0.9-1.3-0.9c-2.2,0.1-4.4,0.1-6.5,0c-1,0-2-0.1-2.9-0.4c-1.9-0.6-2.8-2-3.2-3.9
			c-1-4.8-1.4-9.6-0.9-14.5c0.2-1.9,0.5-3.7,0.9-5.6c0.4-2.1,1.9-3.5,4-3.6c2.8-0.2,5.6-0.2,8.4-0.2c0.7,0,1.1-0.2,1.4-0.9
			c1.8-4.3,4.1-8.3,6.9-12c0.4-0.6,0.4-1,0.1-1.6c-1.1-1.8-2.1-3.7-3.2-5.6c-1.9-3.4-1.5-5.9,1.5-8.5c3.5-3,7.4-5.3,11.6-7.1
			c1.5-0.6,3-1.1,4.5-1.6c2.6-0.8,4.7-0.1,6.1,2.3c1.3,2.2,2.5,4.5,3.7,6.8c0.3,0.6,0.6,0.8,1.3,0.7c4.6-0.8,9.2-0.8,13.8,0
			c0.8,0.1,1-0.1,1.3-0.7c1.1-2.1,2.2-4.1,3.3-6.2c1.7-3.1,3.7-3.9,7-2.9c5.7,1.9,11,4.7,15.6,8.6c0.6,0.5,1.2,1,1.6,1.7
			c1.4,1.9,1.5,4,0.4,6c-1.2,2.2-2.4,4.3-3.6,6.4c-0.3,0.6-0.4,0.9,0,1.5c2.9,3.8,5.2,7.8,7,12.2c0.3,0.6,0.6,0.8,1.2,0.8
			c2.8,0,5.6,0,8.5,0.2c2.3,0.2,3.7,1.6,4.1,3.9c1.1,5.3,1.5,10.7,0.6,16.1c-0.2,1.4-0.5,2.8-0.8,4.1c-0.5,2.1-1.9,3.4-4,3.7
			C312.5,250,310.8,250,309.1,250C309.1,250,309.1,250,309.1,250z M265.7,218c-2.4-0.1-5.1,0.4-7.8,1.4c-7.2,2.9-10.6,8.8-10.3,16.2
			c0.2,4.6,2,8.7,4.5,12.6c0.1,0.2,0.4,0.4,0.6,0.6c6,4.5,12.4,5.9,19.5,2.9c7-2.9,10.3-8.9,10-16.1c-0.1-4.2-1.7-7.9-3.8-11.5
			c-0.3-0.6-0.7-1.2-1.2-1.6C273.7,219.8,269.8,218,265.7,218z"/>
		<path class="st0" d="M220.2,104.4c-1.2,0-2.5,0.1-3.7,0c-2.8-0.1-4.4-1.6-5-4.3c-0.8-3.9-1.4-7.7-1-11.7c0.2-2.8,0.6-5.5,1.1-8.3
			c0.4-2.3,2.1-3.6,4.6-3.7c2.7-0.1,5.3-0.1,8-0.1c0.6,0,1-0.2,1.2-0.8c1.7-4.2,4-8.1,6.9-11.7c0.4-0.5,0.4-1,0.1-1.5
			c-1.2-2.1-2.3-4.3-3.4-6.4c-1.6-3.1-1.2-5.1,1.5-7.4c4.6-3.9,9.6-6.9,15.2-9.1c3.7-1.5,6-0.6,7.9,2.9c1.1,2,2.1,3.9,3.1,5.9
			c0.3,0.7,0.7,0.8,1.4,0.7c4.6-0.8,9.2-0.8,13.7,0c0.7,0.1,1,0,1.4-0.7c1-2,2.1-4,3.2-6c1.8-3.3,3.8-4.1,7.3-3
			c6.4,2.1,11.9,5.5,16.7,10.1c1.6,1.5,1.9,3.6,0.8,5.8c-1.2,2.4-2.4,4.7-3.7,7c-0.3,0.6-0.4,1,0.1,1.6c2.8,3.5,5.1,7.3,6.8,11.5
			c0.3,0.7,0.7,0.9,1.4,0.9c2.5,0,5.1,0,7.6,0.1c2.9,0.1,4.4,1.6,5,4.5c0.9,4.6,1.3,9.2,0.7,13.9c-0.2,1.8-0.5,3.7-0.9,5.5
			c-0.6,2.7-2.2,4-4.9,4.1c-2.5,0.1-5.1,0.1-7.6,0.1c-0.7,0-1,0.2-1.3,0.8c-1.7,4.2-4,8.1-6.9,11.7c-0.4,0.5-0.5,0.9-0.1,1.4
			c1.1,1.9,2.2,3.8,3.3,5.7c1,1.8,1.6,3.7,0.7,5.7c-0.3,0.7-0.8,1.4-1.4,1.9c-4.7,4.2-10,7.4-15.9,9.6c-3,1.2-5.6,0.3-7.3-2.5
			c-1.3-2.1-2.5-4.2-3.6-6.3c-0.3-0.6-0.7-0.8-1.4-0.7c-4.6,0.8-9.2,0.8-13.8,0c-0.6-0.1-1,0-1.3,0.6c-1.1,2-2.2,3.9-3.4,5.9
			c-1.9,3.3-4.6,4.2-8.1,2.8c-5.2-2.1-10.1-4.9-14.4-8.6c-1.5-1.3-2.9-2.8-2.7-4.9c0.1-1.2,0.5-2.3,1-3.4c1-2,2.2-4,3.4-5.9
			c0.3-0.5,0.3-0.9-0.1-1.4c-2.9-3.6-5.2-7.5-7-11.8c-0.2-0.6-0.5-0.8-1.1-0.8C222.8,104.5,221.5,104.5,220.2,104.4
			C220.2,104.5,220.2,104.5,220.2,104.4z M264.8,107.9c0.9-0.1,1.8,0,2.6-0.2c1.5-0.3,3-0.7,4.5-1.3c7.2-2.8,10.6-8.9,10.3-16.2
			c-0.2-4.6-2-8.7-4.5-12.6c-0.2-0.3-0.5-0.5-0.8-0.7c-6-4.4-12.4-5.7-19.4-2.8c-6,2.5-9.3,7.1-10,13.6c-0.4,4.4,0.8,8.5,2.8,12.4
			c0.6,1.1,1.1,2.4,2,3.2C256,106.1,260.1,107.8,264.8,107.9z"/>
	</g>
</g>
</svg>
